:SAMPLES-PER-SECOND 30
:FULLY-SPECIFIED
:DEGREES
423
root  -39.0213 34.3452 9.87015 -176.786 25.2223 177.199
RightUpLeg  -26.4705 -24.2124 -3.15132
RightLeg  16.4506 -9.15119 -2.06223
RightFoot  5.9873 0.0686722 -0.735305
RightToes  -21.4611 -0.0897527 -0.188465
Spine  0.752416 0.393066 -0.612588
Spine1  1.38635 1.01707 -0.627828
HEad  -67.5517 -24.1672 12.4227
LeftShoulder1  -1.94126e-019 -3.10601e-018 -2.51263e-017
LeftArm  -9.8676 11.4043 -64.634
LeftForeArm  26.3424 -26.6638 -4.3052
LeftHand  -0.431895 0.613559 10.5162
RightShoulder  -4.96962e-017 0 -2.36833e-017
RightArm  13.9414 -1.30809 82.241
RightForeArm  61.196 49.8782 8.8157
RightHand  -0.695931 6.64386 -7.04018
LeftUpLeg  -11.4542 5.49979 -3.79428
LeftLeg  21.3802 13.553 4.27369
LeftFoot  -2.26757 -0.0109119 -0.389819
LeftToes  -21.2396 1.9075e-006 4.29692e-008
424
root  -39.5118 34.4415 10.3029 -177.134 29.1819 176.861
RightUpLeg  -26.3458 -22.9277 -4.48505
RightLeg  23.0507 -7.02542 -2.46426
RightFoot  5.20629 0.0456657 -0.438955
RightToes  -22.714 -0.0941662 -0.198277
Spine  0.620535 -0.0431111 -0.537615
Spine1  1.1247 0.120385 -0.465441
HEad  -66.603 -22.0557 11.6395
LeftShoulder1  -1.94126e-019 -3.10601e-018 -2.51263e-017
LeftArm  -13.4786 13.6829 -63.9334
LeftForeArm  21.5286 -25.6793 -4.33737
LeftHand  -0.447615 1.22713 12.4458
RightShoulder  -4.96962e-017 0 -2.36833e-017
RightArm  6.31335 -2.17543 81.261
RightForeArm  59.7171 45.8396 7.49094
RightHand  -0.891733 4.6499 -10.5693
LeftUpLeg  -10.8204 7.47856 -4.61541
LeftLeg  18.9102 15.5682 4.17607
LeftFoot  -1.05216 -0.00262249 -0.12408
LeftToes  -19.7122 1.9075e-006 4.29692e-008
425
root  -39.9015 34.5252 10.6569 -177.547 32.0526 176.72
RightUpLeg  -24.6926 -21.6171 -6.29896
RightLeg  28.6794 -5.68027 -2.64947
RightFoot  3.54086 0.0207793 -0.158777
RightToes  -23.0307 -0.0989898 -0.200732
Spine  0.479728 -0.665181 -0.408351
Spine1  0.858117 -1.15498 -0.191378
HEad  -65.9666 -20.2317 11.3641
LeftShoulder1  -1.94126e-019 -3.10601e-018 -2.51263e-017
LeftArm  -16.4824 15.0333 -63.8202
LeftForeArm  20.786 -22.7887 -3.86672
LeftHand  -0.432021 1.40617 12.5315
RightShoulder  -4.96962e-017 0 -2.36833e-017
RightArm  -2.8026 -2.68608 79.8765
RightForeArm  57.0711 41.1765 6.23011
RightHand  -0.839626 2.69027 -12.2469
LeftUpLeg  -10.1886 8.39404 -5.0779
LeftLeg  16.9217 17.5592 4.05785
LeftFoot  0.0281338 -5.05223e-006 0.183308
LeftToes  -18.2257 1.9075e-006 4.29692e-008
426
root  -40.2007 34.573 11.0587 -177.914 34.6339 176.573
RightUpLeg  -22.1527 -20.3464 -7.98686
RightLeg  32.8186 -7.12403 -3.96554
RightFoot  2.04499 0.0106765 -0.0516716
RightToes  -21.7855 -0.091634 -0.191021
Spine  0.310241 -1.08856 -0.35456
Spine1  0.524114 -2.00825 -0.0853916
HEad  -65.5798 -19.0017 11.5828
LeftShoulder1  -1.94126e-019 -3.10601e-018 -2.51263e-017
LeftArm  -17.7335 15.3996 -63.8673
LeftForeArm  23.3919 -18.5986 -3.18937
LeftHand  -0.392346 1.51965 11.6899
RightShoulder  -4.96962e-017 0 -2.36833e-017
RightArm  -13.371 -3.29114 78.179
RightForeArm  54.1075 36.3492 5.10534
RightHand  -0.600377 -0.43903 -14.0753
LeftUpLeg  -10.0778 9.21434 -5.29379
LeftLeg  15.8177 19.265 4.0561
LeftFoot  1.05151 -0.00353192 0.546492
LeftToes  -17.7685 1.9075e-006 4.29692e-008
427
root  -40.4656 34.5857 11.5515 -178.159 37.6281 176.118
RightUpLeg  -19.5569 -18.8696 -9.4807
RightLeg  35.4445 -9.2435 -5.69206
RightFoot  0.129681 -0.000272404 0.225174
RightToes  -18.354 -0.0724743 -0.163458
Spine  0.0278734 -1.18741 -0.479525
Spine1  -0.0167567 -2.25503 -0.278731
HEad  -65.1979 -18.3849 12.0722
LeftShoulder1  -1.94126e-019 -3.10601e-018 -2.51263e-017
LeftArm  -17.1247 15.2249 -64.055
LeftForeArm  26.316 -13.8778 -2.443
LeftHand  -0.402149 1.31473 11.4022
RightShoulder  -4.96962e-017 0 -2.36833e-017
RightArm  -26.2343 -3.92053 76.5159
RightForeArm  52.5701 31.3919 4.02258
RightHand  -0.41612 -2.4442 -16.137
LeftUpLeg  -10.4739 10.5571 -5.59821
LeftLeg  14.9191 20.8073 4.03508
LeftFoot  2.07945 -0.0147118 0.972208
LeftToes  -18.044 1.9075e-006 4.29692e-008
428
root  -40.7132 34.5887 12.0324 -178.203 39.8511 175.581
RightUpLeg  -16.0452 -19.1801 -10.9768
RightLeg  35.3219 -9.57667 -5.8652
RightFoot  -2.06574 0.000379372 0.661649
RightToes  -16.365 -0.0621355 -0.146973
Spine  -0.344776 -1.31068 -0.681048
Spine1  -0.747394 -2.52778 -0.647932
HEad  -64.7522 -18.2004 12.6102
LeftShoulder1  -1.94126e-019 -3.10601e-018 -2.51263e-017
LeftArm  -15.8218 14.96 -64.5973
LeftForeArm  29.66 -9.95527 -1.7494
LeftHand  -0.432941 0.885819 11.153
RightShoulder  -4.96962e-017 0 -2.36833e-017
RightArm  -37.149 -4.96513 73.6132
RightForeArm  50.4399 26.3023 3.0366
RightHand  -0.0538818 -5.1078 -16.9562
LeftUpLeg  -11.3318 11.9602 -5.95475
LeftLeg  14.3635 21.4955 3.95186
LeftFoot  3.09604 -0.0335881 1.40441
LeftToes  -18.9477 1.9075e-006 4.29692e-008
429
root  -40.9245 34.5613 12.5758 -178.226 41.9365 175.118
RightUpLeg  -12.0381 -19.7973 -12.2239
RightLeg  33.2092 -8.92914 -5.03429
RightFoot  -3.705 0.00960254 0.914028
RightToes  -15.0028 -0.0553878 -0.13548
Spine  -0.621323 -1.36892 -0.910874
Spine1  -1.2831 -2.67224 -1.07897
HEad  -64.7664 -18.3745 13.187
LeftShoulder1  -1.94126e-019 -3.10601e-018 -2.51263e-017
LeftArm  -15.1513 14.7682 -65.4632
LeftForeArm  32.9511 -7.7654 -1.35342
LeftHand  -0.459312 0.382132 10.6889
RightShoulder  -4.96962e-017 0 -2.36833e-017
RightArm  -46.3567 -6.31334 70.1177
RightForeArm  47.888 20.5196 2.0798
RightHand  0.0508389 -5.79356 -18.2374
LeftUpLeg  -12.6952 14.4664 -6.17023
LeftLeg  14.6982 20.933 3.97673
LeftFoot  3.73468 -0.044492 1.61657
LeftToes  -19.9196 1.9075e-006 4.29692e-008
